<svg xmlns="http://www.w3.org/2000/svg" fill="none" viewBox="0 0 48 48" height="33" width="33">
<path fill="#cbcbcb" d="M22.7198 6.35996V13.1276L8.63987 21.88C7.67987 22.6 7.29987 23.84 7.67987 24.96C8.05987 26.1 9.09987 26.86 10.2999 26.86H12.5211C12.0675 31.1206 9.66929 34.9213 5.60007 40.1199C4.94007 40.9399 4.82007 42.0999 5.28007 43.0399C5.74007 43.9799 6.70007 44.5999 7.76007 44.5999H15.3469L15.3603 44.6H33.1003L33.1137 44.5999H40.7001C41.7401 44.5999 42.7201 43.9799 43.1801 43.0399C43.6401 42.0999 43.5201 40.9399 42.8601 40.1199C38.7909 34.9213 36.3926 31.1206 35.939 26.86H38.1599C39.3599 26.86 40.3999 26.1 40.7999 24.96C41.1599 23.84 40.7799 22.6 39.7199 21.8L27.245 14.0605L31.8998 11.64C32.7598 11.14 33.2799 10.22 33.2799 9.23996C33.2799 8.25996 32.7598 7.33996 31.8998 6.83996L26.8598 3.95996C25.9998 3.45996 24.9398 3.45996 24.0998 3.95996C23.2398 4.45996 22.7198 5.37996 22.7198 6.35996ZM25.7198 41.5999H30.1803L25.7198 35.4124V41.5999ZM22.7198 41.5999V35.4692L18.3004 41.5999H22.7198ZM23.5982 30.3374C22.9522 30.4717 22.3597 30.8136 21.9803 31.36L14.5879 41.5999H8.24007C11.84 36.9999 15.02 32.36 15.5401 26.86H32.9401C33.4401 32.38 36.6401 36.9999 40.2201 41.5999H33.8738L26.5003 31.36C26.0986 30.796 25.4819 30.4528 24.8187 30.3271C24.6346 30.2454 24.4319 30.2 24.2198 30.2C23.999 30.2 23.7882 30.2493 23.5982 30.3374ZM34.378 23.86H37.3399L24.2199 15.74L11.1199 23.86H14.0821L14.1001 23.8599H34.3601L34.378 23.86ZM25.7198 6.75996V11.48L30.0399 9.21996L25.7198 6.75996Z" clip-rule="evenodd" fill-rule="evenodd"></path>
</svg>
